<?xml version="1.0" encoding="utf-8"?>
<!-- Generator: Adobe Illustrator 13.0.0, SVG Export Plug-In . SVG Version: 6.00 Build 14948)  -->
<!DOCTYPE svg PUBLIC "-//W3C//DTD SVG 1.1//EN" "http://www.w3.org/Graphics/SVG/1.1/DTD/svg11.dtd">
<svg version="1.1" id="Layer_1" xmlns="http://www.w3.org/2000/svg" xmlns:xlink="http://www.w3.org/1999/xlink" x="0px" y="0px"
	 width="714.219px" height="167.126px" viewBox="0 0 714.219 167.126" enable-background="new 0 0 714.219 167.126"
	 xml:space="preserve">
<g>
	<g>
		<g>
			<path fill="#222222" d="M426.048,104.134c-1.67,2.816-4.146,5.074-7.425,6.775c-3.28,1.702-7.271,2.552-11.972,2.552
				c-4.641,0-8.786-0.789-12.437-2.366c-3.652-1.578-6.575-3.852-8.771-6.821c-2.197-2.971-3.45-6.435-3.76-10.396h13.922
				c0.31,2.661,1.376,4.873,3.202,6.637c1.824,1.763,4.253,2.645,7.285,2.645c2.723,0,4.811-0.727,6.265-2.181
				c1.453-1.453,2.182-3.325,2.182-5.615c0-2.042-0.589-3.727-1.764-5.058c-1.176-1.33-2.661-2.397-4.455-3.202
				c-1.795-0.804-4.269-1.731-7.425-2.784c-4.084-1.36-7.424-2.706-10.023-4.037c-2.598-1.33-4.812-3.264-6.636-5.801
				c-1.826-2.536-2.738-5.848-2.738-9.931c0-5.63,2.026-10.07,6.079-13.318s9.42-4.873,16.103-4.873
				c6.93,0,12.451,1.671,16.567,5.012c4.113,3.342,6.45,7.797,7.007,13.365h-14.107c-0.371-2.351-1.361-4.284-2.97-5.801
				c-1.609-1.516-3.806-2.273-6.59-2.273c-2.413,0-4.361,0.635-5.847,1.902c-1.485,1.269-2.228,3.109-2.228,5.522
				c0,1.918,0.571,3.512,1.717,4.779c1.145,1.269,2.6,2.306,4.362,3.109c1.764,0.805,4.16,1.702,7.192,2.691
				c4.207,1.484,7.625,2.877,10.256,4.176c2.629,1.3,4.872,3.249,6.729,5.848s2.784,6.002,2.784,10.209
				C428.554,98.241,427.719,101.32,426.048,104.134z"/>
			<path fill="#222222" d="M472.777,63.901c3.99,2.104,7.13,5.151,9.42,9.143c2.288,3.99,3.434,8.678,3.434,14.061
				s-1.146,10.055-3.434,14.014c-2.29,3.961-5.43,7.008-9.42,9.142c-3.991,2.135-8.492,3.202-13.504,3.202
				s-9.513-1.067-13.504-3.202c-3.991-2.134-7.132-5.181-9.42-9.142c-2.29-3.959-3.435-8.631-3.435-14.014s1.145-10.07,3.435-14.061
				c2.288-3.991,5.429-7.038,9.42-9.143c3.991-2.103,8.492-3.155,13.504-3.155S468.786,61.798,472.777,63.901z M449.992,75.92
				c-2.538,2.568-3.805,6.296-3.805,11.184c0,4.889,1.267,8.616,3.805,11.184c2.536,2.568,5.63,3.852,9.281,3.852
				c3.649,0,6.743-1.283,9.281-3.852c2.536-2.567,3.805-6.295,3.805-11.184c0-4.888-1.269-8.615-3.805-11.184
				c-2.538-2.567-5.632-3.852-9.281-3.852C455.622,72.069,452.528,73.353,449.992,75.92z"/>
			<path fill="#222222" d="M512.824,63.484c3.155-1.887,6.682-2.831,10.58-2.831v14.015h-3.806c-9.591,0-14.385,4.455-14.385,13.364
				v24.78h-13.087V61.395h13.087v9.838C507.131,67.955,509.668,65.372,512.824,63.484z"/>
			<path fill="#222222" d="M555.423,101.583v11.229h-6.867c-5.755,0-10.163-1.393-13.226-4.177s-4.595-7.425-4.595-13.921V72.44
				h-7.146V61.395h7.146V48.68h13.087v12.715h11.508V72.44h-11.508V94.9c0,2.476,0.494,4.208,1.484,5.197
				c0.989,0.99,2.66,1.485,5.012,1.485H555.423z"/>
			<path fill="#222222" d="M609.993,89.61h-37.681c0.187,4.579,1.423,7.951,3.713,10.116c2.288,2.166,5.135,3.248,8.538,3.248
				c3.031,0,5.553-0.742,7.564-2.228c2.01-1.484,3.295-3.495,3.852-6.032h13.828c-0.682,3.589-2.134,6.807-4.361,9.652
				c-2.228,2.847-5.091,5.073-8.585,6.682c-3.496,1.61-7.379,2.413-11.647,2.413c-5.012,0-9.467-1.067-13.365-3.202
				c-3.897-2.134-6.93-5.181-9.095-9.142c-2.167-3.959-3.249-8.631-3.249-14.014s1.082-10.07,3.249-14.061
				c2.165-3.991,5.197-7.038,9.095-9.143c3.898-2.103,8.354-3.155,13.365-3.155c5.072,0,9.513,1.053,13.317,3.155
				c3.806,2.104,6.743,4.998,8.817,8.678c2.072,3.683,3.109,7.875,3.109,12.576C610.458,86.454,610.303,87.939,609.993,89.61z
				 M593.984,74.296c-2.383-2.165-5.307-3.249-8.771-3.249c-3.527,0-6.497,1.084-8.91,3.249c-2.413,2.166-3.744,5.353-3.991,9.559
				h24.966C597.464,79.649,596.365,76.462,593.984,74.296z"/>
			<path fill="#222222" d="M654.31,63.901c3.99,2.104,7.13,5.151,9.42,9.143c2.288,3.99,3.434,8.678,3.434,14.061
				s-1.146,10.055-3.434,14.014c-2.29,3.961-5.43,7.008-9.42,9.142c-3.991,2.135-8.492,3.202-13.504,3.202
				s-9.513-1.067-13.504-3.202c-3.991-2.134-7.132-5.181-9.42-9.142c-2.29-3.959-3.435-8.631-3.435-14.014s1.145-10.07,3.435-14.061
				c2.288-3.991,5.429-7.038,9.42-9.143c3.991-2.103,8.492-3.155,13.504-3.155S650.318,61.798,654.31,63.901z M631.524,75.92
				c-2.538,2.568-3.805,6.296-3.805,11.184c0,4.889,1.267,8.616,3.805,11.184c2.536,2.568,5.63,3.852,9.281,3.852
				c3.649,0,6.743-1.283,9.281-3.852c2.536-2.567,3.805-6.295,3.805-11.184c0-4.888-1.269-8.615-3.805-11.184
				c-2.538-2.567-5.632-3.852-9.281-3.852C637.154,72.069,634.061,73.353,631.524,75.92z"/>
			<path fill="#222222" d="M706.515,65.479c3.773,3.155,6.126,7.364,7.054,12.622h-12.251c-0.495-2.474-1.609-4.455-3.341-5.939
				c-1.732-1.485-3.991-2.228-6.775-2.228c-2.228,0-3.96,0.526-5.197,1.578c-1.238,1.053-1.855,2.475-1.855,4.269
				c0,1.424,0.494,2.568,1.484,3.435c0.989,0.867,2.228,1.547,3.713,2.041c1.484,0.496,3.619,1.084,6.403,1.764
				c3.898,0.867,7.068,1.779,9.513,2.738c2.444,0.96,4.548,2.476,6.312,4.548c1.764,2.073,2.646,4.872,2.646,8.398
				c0,4.395-1.718,7.951-5.151,10.674s-8.06,4.083-13.875,4.083c-6.683,0-12.035-1.499-16.056-4.501
				c-4.023-3-6.467-7.285-7.332-12.854h12.529c0.309,2.538,1.422,4.533,3.341,5.986c1.917,1.455,4.423,2.182,7.518,2.182
				c2.228,0,3.929-0.541,5.104-1.625c1.175-1.081,1.764-2.489,1.764-4.223c0-1.484-0.511-2.691-1.531-3.619
				c-1.021-0.929-2.29-1.639-3.806-2.135c-1.517-0.494-3.666-1.082-6.45-1.764c-3.837-0.865-6.946-1.747-9.327-2.645
				c-2.383-0.896-4.425-2.335-6.126-4.316c-1.702-1.979-2.552-4.701-2.552-8.167c0-4.455,1.701-8.074,5.104-10.858
				c3.402-2.784,8.104-4.177,14.106-4.177C697.729,60.746,702.74,62.324,706.515,65.479z"/>
		</g>
	</g>
	<g>
		<path fill="#222222" d="M243.707,97.684h-28.771l-5.476,15.128h-9.096l24.224-64.225h9.559l24.131,64.225h-9.096L243.707,97.684z
			 M241.294,91.094l-11.972-33.04l-11.973,33.04H241.294z"/>
		<path fill="#222222" d="M304.31,64.366c3.527,2.104,6.295,5.136,8.307,9.095c2.01,3.961,3.017,8.602,3.017,13.922
			c0,5.322-1.007,9.946-3.017,13.875c-2.011,3.93-4.78,6.946-8.307,9.049c-3.526,2.104-7.549,3.155-12.065,3.155
			c-4.951,0-9.142-1.253-12.576-3.759s-5.801-5.801-7.1-9.884v37.124h-8.446V61.86h8.446v12.993c1.299-4.084,3.666-7.379,7.1-9.885
			s7.625-3.759,12.576-3.759C296.761,61.209,300.784,62.262,304.31,64.366z M280.922,71.001c-2.661,1.517-4.733,3.697-6.218,6.543
			c-1.485,2.847-2.228,6.125-2.228,9.838c0,3.712,0.743,6.977,2.228,9.791c1.485,2.816,3.557,4.997,6.218,6.543
			c2.66,1.548,5.629,2.32,8.91,2.32c5.258,0,9.451-1.654,12.576-4.965c3.124-3.31,4.687-7.873,4.687-13.689
			c0-5.815-1.563-10.379-4.687-13.689c-3.125-3.31-7.317-4.966-12.576-4.966C286.552,68.727,283.582,69.486,280.922,71.001z"/>
		<path fill="#222222" d="M364.172,64.366c3.526,2.104,6.296,5.136,8.307,9.095c2.01,3.961,3.017,8.602,3.017,13.922
			c0,5.322-1.007,9.946-3.017,13.875c-2.011,3.93-4.78,6.946-8.307,9.049c-3.526,2.104-7.549,3.155-12.065,3.155
			c-4.951,0-9.142-1.253-12.576-3.759s-5.801-5.801-7.1-9.884v37.124h-8.446V61.86h8.446v12.993c1.299-4.084,3.666-7.379,7.1-9.885
			s7.625-3.759,12.576-3.759C356.623,61.209,360.646,62.262,364.172,64.366z M340.784,71.001c-2.661,1.517-4.733,3.697-6.218,6.543
			c-1.485,2.847-2.228,6.125-2.228,9.838c0,3.712,0.743,6.977,2.228,9.791c1.485,2.816,3.557,4.997,6.218,6.543
			c2.66,1.548,5.629,2.32,8.91,2.32c5.258,0,9.451-1.654,12.576-4.965c3.124-3.31,4.687-7.873,4.687-13.689
			c0-5.815-1.563-10.379-4.687-13.689c-3.125-3.31-7.317-4.966-12.576-4.966C346.414,68.727,343.444,69.486,340.784,71.001z"/>
	</g>
	<g>
		<path fill="#ED2BA2" d="M90.673,83.942l40.318,40.318l32.487-32.487c4.687-4.688,4.946-12.082,0.259-16.769l-32.063-32.063
			L90.673,83.942z"/>
		<path fill="#C30D82" d="M83.156,91.459l-40.318,40.317l32.063,32.063c4.687,4.688,12.298,4.212,16.986-0.476l31.587-31.587
			L83.156,91.459z"/>
		<path fill="#8C0D82" d="M42.937,92.102l4-8.206l-4-8.794h23.951L35.322,43.581L3.735,75.19c-4.688,4.688-5.112,12.36-0.425,17.048
			l32.012,31.974l32.07-32.109H42.937z"/>
		<path fill="#AA0FBA" d="M75.326,3.621l-32.57,32.487l32.18,32.263V43.102l8.479,4l8.521-4V67.48l32.139-32.055L92.105,3.413
			C87.418-1.274,80.013-1.066,75.326,3.621"/>
	</g>
</g>
</svg>
